# xmcd
#
# Track frame offsets:
#	150
#	20938
#	39293
#	63045
#	78851
#	97090
#	118907
#	136266
#	154730
#	171926
#	187310
#	203705
#	220657
#	239651
#	258257
#
# Disc length: 3737 seconds
#
# Revision: 1
# Processed by: cddbd v1.5.2PL0 Copyright (c) Steve Scherf et al.
# Submitted via: audiograbber 1.83.01
#
DISCID=d50e970f
DTITLE=CHARTBUSTER - 60364 HITS OF THE MONTH JUNE 07
DYEAR=2007
DGENRE=KARAOKE
TTITLE0=KEITH URBAN - I TOLD YOU SO
TTITLE1=TRACY BYRD - BETTER PLACES THAN THIS
TTITLE2=TIM MCGRAW - SUSPICIONS
TTITLE3=FLYNNVILLE TRAIN - LAST GOOD TIME
TTITLE4=JASON MICHAEL CARROLL - LIVIN' OUR LOVE SONG
TTITLE5=KEITH ANDERSON - SUNDAY MORNING IN AMERICA
TTITLE6=GRETCHEN WILSON - ONE OF THE BOYS
TTITLE7=HALFWAY TO HAZARD - DAISY
TTITLE8=MEGAN MULLINS - CRYIN' DAYS
TTITLE9=JACK INGRAM - MEASURE OF A MAN
TTITLE10=VAN ZANT - THAT SCARES ME
TTITLE11=CLAY WALKER - FALL
TTITLE12=LITTLE TEXAS - MISSING YEARS
TTITLE13=JOHN MELLANCAMP - THE AMERICANS
TTITLE14=SUGARLAND - STAY
EXTD=\n\n\n\n\n
EXTT0=
EXTT1=
EXTT2=
EXTT3=
EXTT4=
EXTT5=
EXTT6=
EXTT7=
EXTT8=
EXTT9=
EXTT10=
EXTT11=
EXTT12=
EXTT13=
EXTT14=
PLAYORDER=
